<svg xmlns="http://www.w3.org/2000/svg" width="100" height="100"><path d="M49.98 0C30.96-.27 12.45 11.44 4.64 28.8-4.1 47.14-.26 70.6 14.15 85c13.75 14.45 36.45 18.99 54.8 11.33 17.87-7.01 30.54-25.18 30.99-44.38.98-18.83-9.78-37.63-26.59-46.22A50.15 50.15 0 0049.98 0zM6.66 60L26.1 47.22c-.81-8.76 5-17.6 13.6-19.83 8.03-2.34 17.66.76 21.95 8.17 7.88-1.9 16.16.59 22.77 5-8.44-2.76-19.37-2.77-25.52 4.63-5.18 5.9-7.68 13.78-7.3 21.58-.37 9.93-4.85 19.39-11.61 26.56A44.51 44.51 0 016.66 60z"/><circle cx="51.32" cy="35.08" r="2.78"/></svg>