<svg viewBox="0 0 100 100" xmlns="http://www.w3.org/2000/svg"><path d="M93.75 6.25v87.5h-9.38V100H100V0H84.37v6.25zM31.1 33.11v4.82h.14a13.94 13.94 0 014.64-4.27 12.63 12.63 0 016.23-1.52c2.25 0 4.3.44 6.16 1.31a8.64 8.64 0 014.24 4.62 15.12 15.12 0 014.3-4.14 11.4 11.4 0 016.44-1.79c1.88 0 3.63.23 5.23.69 1.6.46 2.98 1.2 4.13 2.2A10.27 10.27 0 0175.3 39c.64 1.63.96 3.6.96 5.9v23.85h-9.77v-20.2c0-1.2-.05-2.32-.14-3.38a7.2 7.2 0 00-.76-2.76 4.6 4.6 0 00-1.82-1.86 6.6 6.6 0 00-3.27-.69 6.2 6.2 0 00-3.34.8 5.79 5.79 0 00-2 2.06c-.5.9-.82 1.88-.96 2.9a22.1 22.1 0 00-.24 3.27v19.86h-9.78v-20c0-1.05-.02-2.1-.07-3.13a8.83 8.83 0 00-.59-2.86 4.4 4.4 0 00-1.71-2.1c-.81-.53-2-.8-3.55-.8a7.28 7.28 0 00-1.83.31 6.06 6.06 0 00-2.2 1.17 6.87 6.87 0 00-1.82 2.48c-.5 1.09-.76 2.5-.76 4.25v20.68h-9.77V33.09zM6.25 6.25v87.5h9.38V100H0V0h15.63v6.25z"/></svg>