<svg xmlns="http://www.w3.org/2000/svg" width="100" height="100" viewBox="0 0 26.46 26.46"><g color="#fff"><path d="M4.029 2.25c-1.923 0-3.57 1.515-3.57 3.438l.02 14.968-.483 3.563 6.564-1.745h16.325c1.923 0 3.57-1.514 3.57-3.439V5.688c0-1.923-1.647-3.435-3.568-3.437h-.002zm0 2.427h18.858c.675 0 1.143.493 1.143 1.01v13.348c0 .52-.47 1.01-1.145 1.01H6.205l-3.334 1.01.032-.198-.02-15.17c0-.52.469-1.01 1.146-1.01z" style="-inkscape-stroke:none"/><g font-size="8.483" font-family="sans-serif" letter-spacing="0" word-spacing="0" stroke-width=".525"><path d="M6.01 16.058v-1.794l3.78-2q.184-.095.345-.137.184-.068.334-.095l.31-.028v-.137q-.16 0-.31-.055l-.323-.082-.357-.137L6.011 9.58V7.772l5.84 3.178v1.93z" style="-inkscape-font-specification:&quot;JetBrains Mono, Bold&quot;;-inkscape-stroke:none"/><path d="M5.7 7.21v2.603l3.974 2.095.023.014h-.023l-3.963 2.11v2.588l.426-.233 6.014-3.273v-2.397zm.61 1.124l5.23 2.848v1.466l-5.23 2.849v-1l3.594-1.904a1.797 2.137 0 01.311-.123l.3-.082.576-.055v-.78l-.288-.028a1.624 1.931 0 01-.265-.055h-.012a10.46 12.436 0 01-.31-.082 3.203 3.807 0 01-.3-.137L6.31 9.347z" style="-inkscape-font-specification:&quot;JetBrains Mono, Bold&quot;;-inkscape-stroke:none"/></g><g font-size="8.483" font-family="sans-serif" letter-spacing="0" word-spacing="0" stroke-width=".525"><path d="M14.186 15.43h6.237v1.689h-6.237z" style="-inkscape-font-specification:&quot;JetBrains Mono, Bold&quot;;-inkscape-stroke:none"/><path d="M13.875 15.1v2.375h6.847V15.1zm.61.687h5.628v.989h-5.629z" style="-inkscape-font-specification:&quot;JetBrains Mono, Bold&quot;;-inkscape-stroke:none"/></g></g></svg>