<svg xmlns="http://www.w3.org/2000/svg" width="100" height="100" viewBox="0 0 26.46 26.46"><g transform="matrix(.4134 0 0 .4192 -16.92 -7.54)"><path d="M65.35 17.99a24.47 24.47 0 00-24.43 24.4A24.47 24.47 0 0065.35 66.8a24.47 24.47 0 0024.42-24.4 24.47 24.47 0 00-24.42-24.41zm0 6.97c9.67 0 17.44 7.77 17.44 17.44 0 9.67-7.77 17.43-17.44 17.43A17.39 17.39 0 0147.9 42.4c0-9.67 7.77-17.44 17.45-17.44z"/><path d="M65.25 28.1c-2.24 0-4.5.53-6.57 1.6l1.6 3.1a10.8 10.8 0 0114.54 14.64l3.08 1.63A14.3 14.3 0 0065.25 28.1z"/><rect width="13.15" height="27.88" x="7.66" y="97.42" ry="0" transform="rotate(-46.21) skewX(.04)"/></g></svg>