<svg xmlns="http://www.w3.org/2000/svg" viewBox="0 0 100 100"><path d="M38.02 16.02c-3.5 0-7.03.83-10.27 2.53l2.5 4.91a16.88 17.1 0 0122.72 23.2l4.82 2.57a22.35 22.65 0 00-19.77-33.21z"/><path d="M38.18 0A38.24 38.76 0 000 38.65a38.24 38.76 0 0038.18 38.67 38.24 38.76 0 0038.16-38.65A38.24 38.76 0 0038.18 0zm0 11.04c15.1 0 27.25 12.31 27.25 27.63 0 15.32-12.14 27.6-27.25 27.6a27.17 27.55 0 01-27.27-27.6c0-15.32 12.14-27.63 27.27-27.63z"/><path d="M54.3 69.46l14.23-15.04L100 84.96 85.78 100z"/></svg>