<svg xmlns="http://www.w3.org/2000/svg" width="100" height="100" viewBox="0 0 26.46 26.46"><path d="M26.46 14.17a7.04 7.04 0 01-1.82 4.73 6.14 6.14 0 01-4.37 1.89h-.9v-2.84h.9a3.3 3.3 0 002.26-.95 4.21 4.21 0 001.1-2.83 4.73 4.73 0 00-4.73-4.72c-.16 0-.96.1-1.44.16a.47.47 0 01-.5-.31l-.2-.56a5.83 5.83 0 00-4.85-3.99 5.65 5.65 0 00-6.08 6.94l.2.86a.47.47 0 01-.33.56l-.85.26a2.8 2.8 0 00-2.02 2.7 1.9 1.9 0 00.4 1.16 2.29 2.29 0 001.69.72h2.17v2.84H4.92a5.06 5.06 0 01-4-1.92 4.76 4.76 0 01-.92-2.8 5.61 5.61 0 012.87-4.92 8.07 8.07 0 01-.04-.76 8.5 8.5 0 0116.12-3.77 7.57 7.57 0 017.5 7.55zm-12.85-.89a.47.47 0 00-.76 0L9.3 18.15a.47.47 0 00.38.75h2.13v5.2a.47.47 0 00.47.47h1.9a.47.47 0 00.47-.47v-5.2h2.13a.47.47 0 00.38-.75z"/></svg>