<svg viewBox="0 0 100 100" xmlns="http://www.w3.org/2000/svg"><path d="M100 53.56a26.606 26.606 0 01-6.878 17.875 23.205 23.205 0 01-16.516 7.143h-3.401V67.845h3.401a12.472 12.472 0 008.541-3.59 15.91 15.91 0 004.158-10.696 17.876 17.876 0 00-17.876-17.838c-.605 0-3.628.378-5.443.605a1.776 1.776 0 01-1.89-1.172l-.755-2.116a22.033 22.033 0 00-18.33-15.08 21.353 21.353 0 00-22.978 26.229l.756 3.25a1.776 1.776 0 01-1.247 2.116l-3.212.983a10.582 10.582 0 00-7.634 10.204 7.18 7.18 0 001.511 4.384 8.655 8.655 0 006.387 2.721h8.201v10.733h-8.2a19.123 19.123 0 01-15.118-7.256A17.99 17.99 0 010 60.74a21.202 21.202 0 0110.847-18.594 30.499 30.499 0 01-.151-2.872 32.124 32.124 0 0160.922-14.248 28.61 28.61 0 0128.344 28.533zm-48.564-3.364a1.776 1.776 0 00-2.872 0L35.148 68.6a1.776 1.776 0 001.436 2.834h8.05v19.653a1.776 1.776 0 001.776 1.776h7.18a1.776 1.776 0 001.777-1.776V71.435h8.05a1.776 1.776 0 001.436-2.834z"/></svg>