<svg xmlns="http://www.w3.org/2000/svg" xmlns:xlink="http://www.w3.org/1999/xlink" width="256" height="256"><g transform="translate(128 128) scale(2.438)"><g mask="url(#a)"><path stroke="#000" stroke-width="4.512" d="m-31.172-33.813 26.496 74.189h9.352l26.496-74.19h-9.767l-16.73 47.59Q3.014 18.348 1.87 22.4.727 26.348 0 29.985q-.727-3.637-1.87-7.689-1.143-4.052-2.806-8.728L-21.3-33.813z"/><circle r="43" fill="none" stroke="#000" stroke-width="9" transform="scale(-1 1)"/><g transform="scale(-1 1)"><path id="b" stroke="#000" stroke-linejoin="round" stroke-width="3" d="m51 0-5-3v6z"/><use xlink:href="#b" transform="rotate(11.3)"/><use xlink:href="#b" transform="rotate(22.5)"/><use xlink:href="#b" transform="rotate(33.8)"/><use xlink:href="#b" transform="rotate(45)"/><use xlink:href="#b" transform="rotate(56.3)"/><use xlink:href="#b" transform="rotate(67.5)"/><use xlink:href="#b" transform="rotate(78.8)"/><use xlink:href="#b" transform="rotate(90)"/><use xlink:href="#b" transform="rotate(101.3)"/><use xlink:href="#b" transform="rotate(112.5)"/><use xlink:href="#b" transform="rotate(123.8)"/><use xlink:href="#b" transform="rotate(135)"/><use xlink:href="#b" transform="rotate(146.3)"/><use xlink:href="#b" transform="rotate(157.5)"/><use xlink:href="#b" transform="rotate(168.8)"/><use xlink:href="#b" transform="scale(-1)"/><use xlink:href="#b" transform="rotate(191.3)"/><use xlink:href="#b" transform="rotate(202.5)"/><use xlink:href="#b" transform="rotate(213.8)"/><use xlink:href="#b" transform="rotate(225)"/><use xlink:href="#b" transform="rotate(236.3)"/><use xlink:href="#b" transform="rotate(247.5)"/><use xlink:href="#b" transform="rotate(258.8)"/><use xlink:href="#b" transform="rotate(-90)"/><use xlink:href="#b" transform="rotate(-78.8)"/><use xlink:href="#b" transform="rotate(-67.5)"/><use xlink:href="#b" transform="rotate(-56.3)"/><use xlink:href="#b" transform="rotate(-45)"/><use xlink:href="#b" transform="rotate(-33.8)"/><use xlink:href="#b" transform="rotate(-22.5)"/><use xlink:href="#b" transform="rotate(-11.3)"/></g><g transform="scale(-1 1)"><path id="c" stroke="#000" stroke-linejoin="round" stroke-width="6" d="m0-35 7-7H-7z"/><use xlink:href="#c" transform="rotate(72)"/><use xlink:href="#c" transform="rotate(144)"/><use xlink:href="#c" transform="rotate(216)"/><use xlink:href="#c" transform="rotate(-72)"/></g></g><mask id="a"><path fill="#fff" d="M-60-60H60V60H-60z"/><circle id="d" cy="-40" r="3"/><use xlink:href="#d" transform="rotate(72)"/><use xlink:href="#d" transform="rotate(144)"/><use xlink:href="#d" transform="rotate(216)"/><use xlink:href="#d" transform="rotate(-72)"/></mask></g></svg>