<svg xmlns="http://www.w3.org/2000/svg" viewBox="0 0 100 100"><path d="M49.576 99.916c-.488-.144-.734-.469-2.087-2.721-1.27-2.117-1.315-2.177-1.625-2.177-.181 0-.461-.027-.627-.057-.284-.06-.386.034-2.03 1.852-.952 1.058-1.856 1.984-2.01 2.064-.617.317-1.584.071-1.872-.48a63.42 63.42 0 01-.956-2.574l-.843-2.344-.483-.173a3.402 3.402 0 00-.692-.178c-.113-.008-1.096.642-2.241 1.49-1.123.823-2.185 1.549-2.366 1.605-.476.16-1.05-.026-1.429-.457a2.328 2.328 0 01-.31-.4c0-.114-.703-4.82-.752-5.024-.05-.207-.87-.725-1.153-.725-.06 0-1.156.495-2.434 1.1-1.564.74-2.437 1.103-2.668 1.1a1.55 1.55 0 01-1.206-.722c-.223-.352-.223-.34-.026-4.426l.06-1.3-.517-.439-.518-.435-2.446.613c-1.341.336-2.608.608-2.808.608a1.402 1.402 0 01-1.338-1.341c0-.144.269-1.342.601-2.658.329-1.319.597-2.452.594-2.524a1.946 1.946 0 00-.39-.567l-.389-.442-2.646.124c-2.449.118-2.676.114-3.008-.041a1.56 1.561 0 01-.563-.5c-.382-.619-.299-.944.907-3.491l1.103-2.344-.302-.604c-.265-.514-.355-.613-.635-.662a242.052 242.053 0 00-2.593-.397 25.444 25.444 0 01-2.449-.438 2.256 2.256 0 01-.434-.367c-.212-.227-.25-.363-.25-.884v-.616l1.569-2.11 1.568-2.108-.174-.567a2.683 2.683 0 00-.268-.658 33.846 33.846 0 00-2.396-.907 33.762 33.763 0 01-2.533-.964 1.402 1.402 0 01-.442-1.799c.125-.219 3.262-3.186 3.912-3.7a3.704 3.704 0 00-.038-.726l-.068-.699-2.18-1.308C1.492 51.7.388 50.968.24 50.793c-.241-.287-.264-.385-.226-.907.038-.487.09-.635.336-.87.159-.15 1.247-.85 2.408-1.541l2.116-1.266.072-.707c.057-.575.038-.726-.083-.824a134.668 134.669 0 01-1.966-1.765C.956 41.144.793 40.917.933 40.165c.14-.73.397-.88 3.062-1.825a188.2 188.2 0 002.483-.889 5.216 5.216 0 00.215-.63l.182-.61-.756-1.027c-2.491-3.36-2.423-3.266-2.423-3.765 0-.559.265-1.039.7-1.262.17-.09 1.382-.318 2.728-.51 1.334-.193 2.483-.382 2.555-.424.072-.037.265-.32.43-.63l.303-.56-1.119-2.377c-1.05-2.227-1.118-2.408-1.073-2.865a1.293 1.293 0 01.858-1.153c.276-.117.684-.125 2.502-.038 1.19.06 2.358.125 2.593.144.408.038.45.011.846-.465l.42-.5-.624-2.512c-.34-1.384-.62-2.616-.62-2.744.004-.303.223-.711.533-1.002.443-.416.824-.386 3.444.272 1.334.337 2.483.609 2.55.605a2.188 2.188 0 00.617-.423l.487-.428-.124-2.653c-.14-2.963-.129-3.046.517-3.503.609-.435.972-.344 3.568.895l2.336 1.115.563-.329.56-.328.377-2.518c.205-1.394.443-2.653.53-2.823a1.387 1.387 0 011.266-.703c.495 0 .582.057 3.76 2.423l1.02.763.62-.189a3.182 3.182 0 00.692-.264c.042-.046.461-1.157.93-2.468.469-1.312.937-2.476 1.036-2.59A1.72 1.72 0 0140.584.9c.491 0 .896.32 2.14 1.7l1.7 1.883.488.532.65-.068.654-.071 1.33-2.211C49.02.205 49.209 0 50.022 0c.366 0 .548.06.786.26.17.144.895 1.24 1.613 2.439l1.308 2.18.654.072c.491.05.688.038.782-.064l1.701-1.89c.862-.96 1.712-1.825 1.886-1.924.575-.32 1.47-.136 1.803.37.121.19.51 1.225 1.78 4.774.08.22.22.303.752.469l.654.2 2.117-1.568 2.116-1.569h.616c.548 0 .654.038.926.299.393.378.442.563.81 3.103.415 2.891.32 2.608.982 2.94l.567.288 2.298-1.096c1.266-.605 2.419-1.12 2.57-1.15.378-.075.903.125 1.236.47.374.392.4.827.253 3.71l-.114 2.238.428.378a3.05 3.05 0 00.593.424c.09.034 1.247-.216 2.574-.545 1.323-.332 2.528-.604 2.672-.604.7 0 1.342.642 1.342 1.337 0 .205-.269 1.452-.605 2.778-.665 2.657-.662 2.45-.027 3.149l.284.314 2.551-.14c2.94-.163 3.209-.121 3.613.533.4.646.325.944-.895 3.515l-1.112 2.332.299.59c.196.396.37.608.521.642.125.03 1.297.211 2.608.404 1.316.193 2.468.393 2.57.446.59.318.908 1.149.662 1.739-.08.189-.805 1.232-1.614 2.32-1.599 2.155-1.58 2.102-1.225 2.948.14.34.197.367 2.529 1.198 1.311.465 2.49.93 2.62 1.032a1.474 1.474 0 01.385 1.754c-.076.151-1.006 1.058-2.06 2.018-1.909 1.731-1.916 1.739-1.86 2.09.034.197.06.495.06.67 0 .298.091.362 2.193 1.625 1.206.718 2.305 1.447 2.445 1.613.367.435.427.885.19 1.425-.19.427-.31.514-2.34 1.724a39.156 39.156 0 00-2.298 1.436c-.099.098-.19.408-.227.763l-.053.605 1.905 1.701c1.047.934 1.965 1.818 2.045 1.965.313.594.075 1.6-.446 1.875-.114.06-1.27.491-2.574.96-1.304.465-2.385.862-2.404.88a6.244 6.244 0 00-.2.673l-.17.647 1.519 2.048c.835 1.13 1.561 2.211 1.618 2.404a1.538 1.538 0 01-.227 1.206c-.321.408-.692.51-3.232.895-1.413.212-2.577.401-2.589.416-.189.276-.555.998-.555 1.096 0 .068.499 1.18 1.111 2.472.99 2.094 1.107 2.392 1.062 2.767a1.41 1.41 0 01-.714 1.103c-.261.151-.492.167-2.15.106a130.758 130.758 0 01-2.715-.125l-.854-.064-.423.552-.427.552.605 2.407c.332 1.327.604 2.582.604 2.79a1.33 1.33 0 01-1.349 1.326c-.196 0-1.444-.272-2.767-.604l-2.407-.601-.491.374c-.579.442-.548.174-.378 3.496.11 2.097.105 2.237-.076 2.6a1.572 1.572 0 01-.518.575c-.623.355-.926.276-3.477-.926l-2.366-1.115-.567.317a28.762 28.762 0 00-.593.34c-.015.012-.2 1.172-.416 2.578-.246 1.648-.446 2.66-.556 2.85-.366.62-1.322.854-1.916.472a99.14 99.141 0 01-2.165-1.583l-1.883-1.399-.529.117a2.355 2.355 0 00-.68.242c-.083.064-.522 1.18-.975 2.472-.953 2.695-1.134 2.982-1.94 3.073a1.84 1.84 0 01-.744-.064c-.155-.068-1.08-.994-2.06-2.068l-1.772-1.946-.669.064a12.624 12.624 0 00-.684.076c-.011.007-.635 1.043-1.391 2.297-1.262 2.106-1.406 2.306-1.784 2.476-.453.204-.574.216-1.001.087zm-7.696-15.28C33.184 60.207 21.335 27.11 21.293 27.11c-.177-.008-2.494 3.375-3.2 4.671l-.341.624.227.423c.132.234.869 1.69 1.651 3.228 1.285 2.54 1.418 2.857 1.456 3.417a2.736 2.736 0 01-.688 2.063c-.333.378-.87.692-3.59 2.079-2.352 1.206-3.213 1.693-3.251 1.84-.295 1.206-.31 6.71-.02 8.905.938 7.117 3.482 13.153 7.855 18.633a33.262 33.262 0 001.334 1.576l.567.609 3.33-.53c1.833-.29 3.537-.528 3.79-.528 1.115-.008 2.295.824 2.623 1.848.087.272.39 1.98.673 3.798.287 1.814.548 3.33.582 3.368.144.151 2.548 1.122 3.916 1.587 1.398.469 3.571 1.074 3.923 1.089.147.004.113-.167-.25-1.172zm17.356.835a44.898 44.898 0 002.683-.805c1.418-.488 3.67-1.418 3.753-1.55.027-.045.3-1.644.605-3.553.374-2.358.612-3.59.749-3.855a2.774 2.774 0 012.294-1.572c.351-.023 1.72.15 3.741.472 1.758.28 3.289.507 3.406.507.272 0 .971-.715 2.154-2.2a36.835 36.835 0 007.347-15.802c.53-2.684.613-3.712.601-7.253-.003-1.814-.049-3.59-.102-3.95l-.087-.65-3.152-1.618c-2.04-1.043-3.288-1.742-3.537-1.98-.563-.54-.81-1.153-.813-2.026v-.726l1.648-3.25 1.652-3.243-.303-.582c-.718-1.387-3.091-4.819-3.235-4.679-.034.038-4.774 13.247-10.53 29.363-6.716 18.8-10.416 29.3-10.333 29.3.072 0 .73-.156 1.459-.348zm-30.531-2.06c2.434-1.1 2.192-4.611-.37-5.356-1.051-.302-2.106.019-2.884.885a2.835 2.835 0 00.998 4.49c.567.257 1.663.25 2.256-.02zm44.87-.03c1.788-.832 2.193-3.213.783-4.627a2.578 2.578 0 00-1.984-.774c-.862 0-1.285.173-1.947.793a2.804 2.804 0 00.718 4.585 2.99 2.99 0 002.43.022zM50.66 67.664c.318-1.047 2.32-6.879 4.46-12.952C65.211 25.965 67.914 18.24 67.94 18.104c.023-.106-.434-.386-1.489-.915a36.763 36.764 0 00-8.353-2.997l-1.311-.302-2.566 2.555c-2.903 2.887-3.062 3-4.256 2.993a3.088 3.088 0 01-1.104-.177c-.268-.118-1.243-1.017-3.005-2.77l-2.607-2.597-1.195.257c-3.057.661-7.249 2.207-9.513 3.515l-.518.294 7.748 22.05c7.62 21.683 9.177 26.196 9.854 28.52.189.643.366 1.142.4 1.104.03-.038.318-.926.635-1.969zM14.857 40.82a2.88 2.88 0 001.587-3.458 2.869 2.869 0 00-4.01-1.697 2.838 2.838 0 00.114 5.11 3.213 3.213 0 002.305.045zm72.404.03a3.182 3.182 0 001.587-1.515 3.114 3.114 0 00.012-2.23 2.888 2.888 0 00-3.806-1.504 2.872 2.872 0 00-1.391 3.836c.317.646.907 1.198 1.504 1.41.552.196 1.523.2 2.094.003zm-36.29-26.313a3.103 3.103 0 001.689-1.72 2.854 2.854 0 00-2.495-3.787 2.835 2.835 0 00-2.68 4.196c.314.559 1.04 1.186 1.565 1.36.492.155 1.383.133 1.92-.049z"/></svg>