<svg xmlns="http://www.w3.org/2000/svg" xmlns:xlink="http://www.w3.org/1999/xlink" width="100" height="100"><g transform="matrix(3.81 0 0 3.81 200 200)"><g mask="url(#prefix__a)" transform="matrix(.25 0 0 .25 -39.38 -39.38)"><path d="M-31.17-33.81l26.5 74.19h9.35l26.5-74.2H21.4L4.68 13.79Q3 18.35 1.87 22.4.73 26.35 0 29.99q-.73-3.64-1.87-7.7-1.14-4.05-2.8-8.72L-21.3-33.81z"/><path d="M19.8-36.07L2.56 13.03c-1 2.74-1.8 5.3-2.53 7.77-.73-2.52-1.56-5.14-2.57-7.99L-19.7-36.07h-14.67l28.1 78.7H6.27l28.1-78.7zm3.2 4.51h4.97L3.1 38.12h-6.2l-24.88-69.68h5.07l16.1 45.88c1.1 3.08 2.01 5.94 2.76 8.59a99.97 99.97 0 011.83 7.52H2.2a90.36 90.36 0 011.83-7.4v-.01c.75-2.65 1.66-5.47 2.75-8.47v-.01z"/><path d="M0-47.5A47.57 47.57 0 0147.5 0 47.57 47.57 0 010 47.5 47.57 47.57 0 01-47.5 0 47.57 47.57 0 010-47.5zm0 9A38.43 38.43 0 00-38.5 0 38.43 38.43 0 000 38.5 38.43 38.43 0 0038.5 0 38.43 38.43 0 000-38.5z"/><path d="M-51 0l5-3v6z"/><path d="M-45.26-4.3A1.5 1.5 0 01-44.5-3v6a1.5 1.5 0 01-2.27 1.29l-5-3a1.5 1.5 0 010-2.58l5-3a1.5 1.5 0 011.5-.01zM-47.5-.35l-.58.35.58.35zM-50.01 10l4.31-3.94 1.18 5.89z"/><path d="M-45.23 4.65a1.5 1.5 0 011 1.13l1.18 5.88a1.5 1.5 0 01-1.98 1.7l-5.49-1.95a1.5 1.5 0 01-.5-2.53l4.31-3.92a1.5 1.5 0 011.48-.31zm-1.42 4.31l-.5.46.64.23zM-47.12 19.52l3.47-4.69 2.3 5.55z"/><path d="M-43.46 13.34a1.5 1.5 0 011.2.92l2.3 5.54a1.5 1.5 0 01-1.61 2.06l-5.77-.86a1.5 1.5 0 01-.98-2.38l3.47-4.68a1.5 1.5 0 011.39-.6zm-.56 4.51l-.4.55.67.1zM-42.38 28.37l2.49-5.27 3.33 4.98z"/><path d="M-40 21.6a1.5 1.5 0 011.35.66l3.34 4.99a1.5 1.5 0 01-1.17 2.33l-5.83.29a1.5 1.5 0 01-1.43-2.14l2.49-5.27a1.5 1.5 0 011.24-.86zm.33 4.53l-.29.62.68-.04zM-36.06 36.06l1.41-5.65 4.24 4.24z"/><path d="M-35.05 28.96a1.5 1.5 0 011.46.39l4.24 4.24a1.5 1.5 0 01-.7 2.51l-5.65 1.42a1.5 1.5 0 01-1.82-1.82l1.42-5.66a1.5 1.5 0 011.05-1.08zm1.21 4.38L-34 34l.66-.16zM-28.3 42.43l.28-5.82 5 3.32z"/><path d="M-28.7 35.27a1.5 1.5 0 011.51.09l5 3.33a1.5 1.5 0 01-.2 2.6l-5.26 2.5a1.5 1.5 0 01-2.14-1.43l.27-5.83a1.5 1.5 0 01.82-1.26zm2.05 4.05l-.03.68.62-.29zM-19.52 47.12l-.86-5.77 5.55 2.3z"/><path d="M-20.83 39.92a1.5 1.5 0 011.03.04l5.54 2.3a1.5 1.5 0 01.32 2.6l-4.68 3.46a1.5 1.5 0 01-2.38-.98l-.86-5.77a1.5 1.5 0 011.03-1.65zm2.33 3.83l.1.67.55-.4zM-9.9 50.03l-1.98-5.49 5.89 1.17z"/><path d="M-11.59 43.07l5.89 1.16a1.5 1.5 0 01.82 2.48l-3.91 4.33a1.5 1.5 0 01-2.53-.5l-1.97-5.5a1.5 1.5 0 011.7-1.97zm2.02 3.46l.23.64.46-.5zM0 51l-3-5h6z"/><path d="M3 44.5a1.5 1.5 0 011.29 2.27l-3 5a1.5 1.5 0 01-2.58 0l-3-5A1.5 1.5 0 01-3 44.5zm-2.65 3h-.7l.35.58zM10 50.01L6.07 45.7l5.89-1.18z"/><path d="M11.66 43.05a1.5 1.5 0 011.7 1.98l-1.95 5.49a1.5 1.5 0 01-2.53.5l-3.92-4.31a1.5 1.5 0 01.82-2.49zm-2.01 3.46l-.69.14.46.5zM19.52 47.12l-4.69-3.47 5.55-2.3z"/><path d="M19.8 39.96a1.5 1.5 0 012.06 1.61L21 47.34a1.5 1.5 0 01-2.38.98l-4.68-3.47a1.5 1.5 0 01.32-2.59zm-1.3 3.79l-.65.27.55.4zM28.37 42.38l-5.27-2.49 4.98-3.33z"/><path d="M28.76 35.22a1.5 1.5 0 01.82 1.26l.29 5.83a1.5 1.5 0 01-2.14 1.43l-5.27-2.49a1.5 1.5 0 01-.2-2.6l4.99-3.34a1.5 1.5 0 011.5-.1zm-2.05 4.06l-.58.39.62.29zM36.06 36.06l-5.65-1.41 4.24-4.24z"/><path d="M35.05 28.96a1.5 1.5 0 011.05 1.08l1.42 5.66a1.5 1.5 0 01-1.82 1.82l-5.66-1.42a1.5 1.5 0 01-.7-2.51l4.25-4.24a1.5 1.5 0 011.46-.39zm-1.21 4.38l-.5.5.66.16zM42.43 28.3l-5.82-.28 3.32-5z"/><path d="M40.04 21.53a1.5 1.5 0 011.25.85l2.5 5.27a1.5 1.5 0 01-1.43 2.14l-5.83-.27a1.5 1.5 0 01-1.17-2.33l3.33-5a1.5 1.5 0 011.35-.66zm-.33 4.53l-.39.59.68.03zM47.12 19.52l-5.77.86 2.3-5.55z"/><path d="M43.46 13.34a1.5 1.5 0 011.4.6l3.46 4.68a1.5 1.5 0 01-.98 2.38l-5.77.86a1.5 1.5 0 01-1.6-2.06l2.29-5.54a1.5 1.5 0 011.2-.92zm.56 4.51l-.27.65.67-.1zM50.03 9.9l-5.49 1.98 1.17-5.89z"/><path d="M45.23 4.57a1.5 1.5 0 011.48.31l4.33 3.91a1.5 1.5 0 01-.5 2.53l-5.5 1.97a1.5 1.5 0 01-1.97-1.7l1.16-5.89a1.5 1.5 0 011-1.13zm1.43 4.31l-.13.69.64-.23z"/><g><path d="M51 0l-5 3v-6z"/><path d="M45.26-4.3a1.5 1.5 0 011.51.01l5 3a1.5 1.5 0 010 2.58l-5 3A1.5 1.5 0 0144.5 3v-6a1.5 1.5 0 01.76-1.3zM47.5-.35v.7l.58-.35z"/></g><g><path d="M50.01-10L45.7-6.07l-1.18-5.89z"/><path d="M45.03-13.37l5.49 1.96a1.5 1.5 0 01.5 2.53l-4.31 3.92a1.5 1.5 0 01-2.49-.82l-1.17-5.88a1.5 1.5 0 011.98-1.7zm1.48 3.72l.14.69.5-.46z"/></g><g><path d="M47.12-19.52l-3.47 4.69-2.3-5.55z"/><path d="M41.57-21.86l5.77.86a1.5 1.5 0 01.98 2.38l-3.47 4.68a1.5 1.5 0 01-2.59-.32l-2.3-5.54a1.5 1.5 0 011.61-2.06zm2.18 3.36l.27.65.4-.55z"/></g><g><path d="M42.38-28.37l-2.49 5.27-3.33-4.98z"/><path d="M42.3-29.87a1.5 1.5 0 011.44 2.14l-2.49 5.27a1.5 1.5 0 01-2.6.2l-3.34-4.99a1.5 1.5 0 011.17-2.33zm-2.34 3.12l-.68.04.39.58z"/></g><g><path d="M36.06-36.06l-1.41 5.65-4.24-4.24z"/><path d="M35.7-37.52a1.5 1.5 0 011.82 1.82l-1.42 5.66a1.5 1.5 0 01-2.51.7l-4.24-4.25a1.5 1.5 0 01.7-2.51zM34-34l-.66.16.5.5z"/></g><g><path d="M28.3-42.43l-.28 5.82-5-3.32z"/><path d="M27.65-43.79a1.5 1.5 0 012.14 1.43l-.27 5.83a1.5 1.5 0 01-2.33 1.17l-5-3.33a1.5 1.5 0 01.2-2.6zM26.68-40l-.62.29.59.39z"/></g><g><path d="M19.52-47.12l.86 5.77-5.55-2.3z"/><path d="M20.1-48.5a1.5 1.5 0 01.9 1.16l.86 5.77a1.5 1.5 0 01-2.06 1.6l-5.54-2.29a1.5 1.5 0 01-.32-2.6l4.68-3.46a1.5 1.5 0 011.47-.18zm-1.7 4.08l-.55.4.65.27z"/></g><g><path d="M9.9-50.03l1.98 5.49-5.89-1.17z"/><path d="M10.2-51.5a1.5 1.5 0 011.12.96l1.97 5.5a1.5 1.5 0 01-1.7 1.97L5.7-44.23a1.5 1.5 0 01-.82-2.48l3.91-4.33a1.5 1.5 0 011.4-.46zm-.86 4.33l-.46.5.69.14z"/></g><g><path d="M0-51l3 5h-6z"/><path d="M0-52.5a1.5 1.5 0 011.29.73l3 5A1.5 1.5 0 013-44.5h-6a1.5 1.5 0 01-1.29-2.27l3-5A1.5 1.5 0 010-52.5zm0 4.42l-.35.58h.7z"/></g><g><path d="M-9.9-50.03L-6-45.7l-5.88 1.17z"/><path d="M-10.2-51.5a1.5 1.5 0 011.4.46l3.93 4.34a1.5 1.5 0 01-.82 2.48l-5.89 1.16a1.5 1.5 0 01-1.7-1.98l1.97-5.49a1.5 1.5 0 011.12-.96zm.86 4.33l-.23.64.69-.13z"/></g><g><path d="M-19.52-47.12l4.69 3.47-5.55 2.3z"/><path d="M-20.1-48.5a1.5 1.5 0 011.48.18l4.68 3.47a1.5 1.5 0 01-.32 2.59l-5.54 2.3a1.5 1.5 0 01-2.06-1.61l.86-5.77a1.5 1.5 0 01.9-1.16zm1.7 4.08l-.1.67.65-.27z"/></g><g><path d="M-28.3-42.43l5.27 2.5-4.99 3.32z"/><path d="M-28.66-43.88a1.5 1.5 0 011 .1l5.28 2.49a1.5 1.5 0 01.18 2.6l-4.99 3.33a1.5 1.5 0 01-2.33-1.17l-.27-5.83a1.5 1.5 0 011.13-1.52zm1.98 3.88l.03.68.59-.4z"/></g><g><path d="M-36.06-36.06l5.65 1.41-4.24 4.24z"/><path d="M-35.7-37.52l5.66 1.42a1.5 1.5 0 01.7 2.51l-4.25 4.24a1.5 1.5 0 01-2.51-.7l-1.42-5.65a1.5 1.5 0 011.82-1.82zM-34-34l.16.66.5-.5z"/></g><g><path d="M-42.38-28.37l5.82.29-3.33 4.98z"/><path d="M-42.3-29.87l5.82.29a1.5 1.5 0 011.17 2.33l-3.34 4.99a1.5 1.5 0 01-2.6-.2l-2.49-5.27a1.5 1.5 0 011.43-2.14zm2.34 3.12l.3.62.38-.58z"/></g><g><path d="M-47.12-19.52l5.77-.86-2.3 5.55z"/><path d="M-41.57-21.86a1.5 1.5 0 011.6 2.06l-2.29 5.54a1.5 1.5 0 01-2.6.32l-3.46-4.68a1.5 1.5 0 01.98-2.38zm-2.18 3.36l-.67.1.4.55z"/></g><g><path d="M-50.01-10l5.49-1.96-1.18 5.89z"/><path d="M-45.03-13.37a1.5 1.5 0 011.98 1.7l-1.17 5.9a1.5 1.5 0 01-2.49.8l-4.31-3.91a1.5 1.5 0 01.5-2.53zm-1.48 3.72l-.64.23.5.46z"/></g><g><path d="M0-35l-7-7H7z"/><path d="M7-45a3 3 0 012.12 5.12l-7 7a3 3 0 01-4.24 0l-7-7A3 3 0 01-7-45zM-33.29-10.82l-8.82 4.5 4.33-13.32z"/><path d="M-38.02-22.63A3 3 0 01-35.1-21l4.5 8.82a3 3 0 01-1.32 4.04l-8.82 4.5a3 3 0 01-4.21-3.6l4.33-13.32a3 3 0 012.61-2.07zM-20.57 28.32l1.55 9.77-11.33-8.23z"/><path d="M-21.04 25.35a3 3 0 013.43 2.5l1.55 9.77a3 3 0 01-4.73 2.9l-11.32-8.23a3 3 0 011.29-5.39z"/><g><path d="M20.57 28.32l9.78 1.54-11.33 8.23z"/><path d="M21.04 25.35l9.78 1.55a3 3 0 011.3 5.4l-11.33 8.22a3 3 0 01-4.73-2.9l1.55-9.77a3 3 0 013.43-2.5z"/></g><g><path d="M33.29-10.82l4.5-8.82 4.32 13.32z"/><path d="M38.02-22.63a3 3 0 012.61 2.07l4.33 13.31a3 3 0 01-4.21 3.6l-8.82-4.5a3 3 0 01-1.32-4.03l4.5-8.82a3 3 0 012.9-1.63z"/></g></g></g><mask id="prefix__a"><path fill="#fff" d="M-60-60H60V60H-60z"/><circle id="prefix__b" cx="0" cy="-40" r="3"/><use xlink:href="#prefix__b" transform="rotate(72)"/><use xlink:href="#prefix__b" transform="rotate(144)"/><use xlink:href="#prefix__b" transform="rotate(-144)"/><use xlink:href="#prefix__b" transform="rotate(-72)"/></mask></g></svg>